
<svg xmlns="http://www.w3.org/2000/svg" version="1.1" xmlns:xlink="http://www.w3.org/1999/xlink" preserveAspectRatio="none" x="0px" y="0px" width="512px" height="512px" viewBox="0 0 512 512">
<defs>
<g id="Layer0_0_FILL">
<path fill="#c48a0c" stroke="none" d="
M 400.05 112.2
L 355.15 108.05 334 68.1 290.95 81.4 256.25 52.45 221.3 81.4 178.25 68.1 157.1 108.05 112.2 112.2 108.05 157.1 68.15 178.2 81.45 221.25 52.75 256 81.45 290.95 68.15 334 108.05 355.15 112.2 400 157.1 404.2 178.25 444.1 221.3 430.8 256.25 459.5 290.95 430.8 334 444.1 355.15 404.2 400.05 400 404.2 355.15 444.15 334 430.8 290.95 459.8 256 430.8 221.25 444.15 178.2 404.2 157.1 400.05 112.2
M 256.05 232
Q 263 232.35 267.85 237.4 272.7 242.45 272.7 249.45
L 272.75 345.05
Q 272.75 352 267.85 356.9 262.95 361.8 256.05 361.8 249.1 361.8 244.2 356.9 239.3 352 239.3 345.05
L 239.35 249.45
Q 239.35 242.45 244.2 237.4 249.05 232.35 256.05 232
M 228.75 177.5
Q 228.75 166.2 236.75 158.2 244.75 150.25 256.05 150.25 267.3 150.25 275.3 158.25 283.3 166.2 283.3 177.5 283.3 188.8 275.3 196.75 267.35 204.75 256.05 204.75 244.75 204.75 236.75 196.75 228.75 188.8 228.75 177.5 Z"/>

<path fill="#FFFFFF" stroke="none" d="
M 236.75 158.2
Q 228.75 166.2 228.75 177.5 228.75 188.8 236.75 196.75 244.75 204.75 256.05 204.75 267.35 204.75 275.3 196.75 283.3 188.8 283.3 177.5 283.3 166.2 275.3 158.25 267.3 150.25 256.05 150.25 244.75 150.25 236.75 158.2
M 267.85 237.4
Q 263 232.35 256.05 232 249.05 232.35 244.2 237.4 239.35 242.45 239.35 249.45
L 239.3 345.05
Q 239.3 352 244.2 356.9 249.1 361.8 256.05 361.8 262.95 361.8 267.85 356.9 272.75 352 272.75 345.05
L 272.7 249.45
Q 272.7 242.45 267.85 237.4 Z"/>
</g>
</defs>

<g transform="matrix( 1, 0, 0, 1, 0,0) ">
<use xlink:href="#Layer0_0_FILL"/>
</g>
</svg>
