<?xml version="1.0" encoding="UTF-8" standalone="no"?>
<svg
   version="1.2"
   viewBox="0 0 210 630"
   width="210"
   height="630"
   id="svg3"
   sodipodi:docname="bt-bonus.svg"
   xml:space="preserve"
   inkscape:version="1.3.2 (091e20e, 2023-11-25, custom)"
   xmlns:inkscape="http://www.inkscape.org/namespaces/inkscape"
   xmlns:sodipodi="http://sodipodi.sourceforge.net/DTD/sodipodi-0.dtd"
   xmlns:xlink="http://www.w3.org/1999/xlink"
   xmlns="http://www.w3.org/2000/svg"
   xmlns:svg="http://www.w3.org/2000/svg"><defs
     id="defs3"><g
       id="Layer0_0_FILL-4"><path
         fill="#FFFFFF"
         stroke="none"
         d=" M 19.35 15.75 L 15.05 54.4 44.55 54.4 48.8 15.75 19.35 15.75 M 21.75 48.35 L 24.7 21.8 42.05 21.8 39.1 48.35 21.75 48.35 M 47.7 54.4 L 56.55 54.4 49.4 36.85 47.7 54.4 Z"
         id="path1-5" /></g></defs><sodipodi:namedview
     id="namedview3"
     pagecolor="#ffffff"
     bordercolor="#666666"
     borderopacity="1.0"
     inkscape:showpageshadow="2"
     inkscape:pageopacity="0.0"
     inkscape:pagecheckerboard="0"
     inkscape:deskcolor="#d1d1d1"
     inkscape:zoom="1.3333334"
     inkscape:cx="193.12499"
     inkscape:cy="167.99999"
     inkscape:window-width="1920"
     inkscape:window-height="1018"
     inkscape:window-x="-6"
     inkscape:window-y="-6"
     inkscape:window-maximized="1"
     inkscape:current-layer="svg3" /><title
     id="title1">travisbtbonus-svg</title><style
     id="style1">
		.s0 { fill: #ffffff } 
		.s1 { fill: none;stroke: #ffffff;stroke-linecap: round;stroke-linejoin: round;stroke-width: 3.2 } 
	</style><g
     id="g1"><g
       id="Layer0_0_FILL"><path
         fill-rule="evenodd"
         class="s0"
         d="m49.5 31.6v17.2q0 1-0.6 1.7-0.7 0.6-1.7 0.6h-24.4q-1 0-1.7-0.6-0.6-0.7-0.6-1.7v-17.3q0-1 0.6-1.6 0.7-0.6 1.7-0.6h2.6v-5.4q0-3.5 2.7-6.3 2.9-2.8 6.8-2.8 3.9 0 6.8 2.9 2.7 2.7 2.7 6.2v5.3l2.8 0.1q1-0.1 1.6 0.6 0.7 0.7 0.7 1.7zm-10.2-11.3q-1.8-1.9-4.4-1.9-2.6 0-4.4 1.9-1.6 1.7-1.6 3.7v5.4h12v-5.5q0-1.9-1.6-3.6z"
         id="path1" /></g></g><g
     id="g3"
     transform="translate(0,-8)"><g
       id="g2"><path
         id="Duplicate_Items_Folder_Tween_1_0_Layer0_0_1_STROKES"
         fill-rule="evenodd"
         class="s1"
         d="m 35.2,106.1 q 0.9,0 1.5,0.6 0.7,0.6 0.7,1.5 0,1.7 -1.3,3 -1.2,1.2 -3,1.2 -2.6,0 -4.5,-1.8 -1.8,-1.9 -1.8,-4.5 0,0 0,0 0,-3.5 2.5,-6 2.4,-2.5 5.9,-2.5 4.4,0 7.5,3.1 3.1,3.1 3.1,7.5 0,5.2 -3.7,8.9 -3.7,3.8 -9,3.8 -6.1,0 -10.4,-4.4 -4.4,-4.3 -4.4,-10.4 0,-7 5,-12 4.9,-4.9 11.9,-5 3.9,0 7.4,1.5 3.5,1.5 6.1,4.1 2.6,2.6 4.1,6.1 1.5,3.5 1.5,7.4 0,4.3 -1.7,8.2 -1.6,3.8 -4.5,6.7 -2.9,3 -6.7,4.6 -4,1.6 -8.3,1.6 -4.7,0 -9,-1.8 -4.2,-1.8 -7.4,-5 -3.2,-3.2 -5,-7.4 -1.8,-4.3 -1.8,-9 0,-5.2 2,-9.9 1.9,-4.6 5.4,-8.1 3.5,-3.5 8.1,-5.4 4.7,-2 9.8,-2 5.6,0 10.7,2.1 5,2.1 8.8,5.9 3.8,3.8 5.9,8.8 2.1,5.1 2.1,10.7" /></g></g><g
     id="Pasta 2"
     transform="translate(0,-8)"><g
       id="Pasta 1"><path
         id="Forma 5"
         class="s0"
         d="M 83,112.5 C 78.5,106.9 81.6,95 81.6,95 c 2.9,3.6 5,7.1 6.7,10.1 -1,2 -2.6,5.7 -2.7,9.7 -0.9,-0.5 -1.8,-1.3 -2.6,-2.3 z" /><path
         id="Forma 5 copy"
         class="s0"
         d="m 100.2,115.1 c 5,0.9 8.8,8.5 8.8,8.5 -10.1,2.5 -15.5,-5.7 -15.5,-5.7 0,0 2.5,-3.5 6.7,-2.8 z" /><path
         id="Forma 3"
         class="s0"
         d="m 99,111.6 c -7.1,6.5 -1.9,15.9 -1.9,15.9 l -4.4,3.2 c 0,0 -8.9,-13.1 1.3,-25.9 0,0 1,3.8 5,6.8 z" /><path
         id="Camada 1"
         class="s0"
         d="m 117.1,81.1 -8.3,3.1 4.9,3.7 -7.4,2.7 4.1,4.9 -6.7,2.5 -1.5,5.1 6.5,2.7 2.3,-5.1 4.6,4.5 2.4,-5.7 3.6,4.8 2.7,-6.3 c 0,0 3.5,11.3 -5.6,14.5 -11.1,3.8 -19,-6.1 -18.9,-6.1 -2.3,-3 -7,-10.7 -1.6,-19 6.5,-9.8 18.9,-6.3 18.9,-6.3 z" /></g></g><use
     xlink:href="#Layer0_0_FILL-4"
     id="use1"
     transform="translate(138.5798,61.036066)" /></svg>
